<?xml version="1.0" encoding="UTF-8" standalone="no"?>
<!DOCTYPE svg PUBLIC "-//W3C//DTD SVG 1.1//EN"
 "http://www.w3.org/Graphics/SVG/1.1/DTD/svg11.dtd">
<!-- Generated by graphviz version 2.43.0 (0)
 -->
<!-- Title: settings_flow Pages: 1 -->
<svg width="1218pt" height="451pt"
 viewBox="0.00 0.00 1217.60 451.10" xmlns="http://www.w3.org/2000/svg" xmlns:xlink="http://www.w3.org/1999/xlink">
<g id="graph0" class="graph" transform="scale(1 1) rotate(0) translate(28.8 422.3)">
<title>settings_flow</title>
<polygon fill="white" stroke="transparent" points="-28.8,28.8 -28.8,-422.3 1188.8,-422.3 1188.8,28.8 -28.8,28.8"/>
<text text-anchor="middle" x="580" y="-371.9" font-family="DejaVu Sans" font-size="22.00" fill="#0f172a">Схема 4. Настройки и смена традиции</text>
<g id="clust1" class="cluster">
<title>cluster_q</title>
<path fill="white" stroke="#d97706" stroke-dasharray="5,2" d="M12,-18C12,-18 223,-18 223,-18 229,-18 235,-24 235,-30 235,-30 235,-151 235,-151 235,-157 229,-163 223,-163 223,-163 12,-163 12,-163 6,-163 0,-157 0,-151 0,-151 0,-30 0,-30 0,-24 6,-18 12,-18"/>
<text text-anchor="middle" x="117.5" y="-149.4" font-family="DejaVu Sans" font-size="12.00" fill="#b45309">Под вопросом — требует решения</text>
</g>
<!-- s7 -->
<g id="node1" class="node">
<title>s7</title>
<path fill="#dbeafe" stroke="#2563eb" stroke-width="2.4" d="M171.5,-207C171.5,-207 62.5,-207 62.5,-207 56.5,-207 50.5,-201 50.5,-195 50.5,-195 50.5,-183 50.5,-183 50.5,-177 56.5,-171 62.5,-171 62.5,-171 171.5,-171 171.5,-171 177.5,-171 183.5,-177 183.5,-183 183.5,-183 183.5,-195 183.5,-195 183.5,-201 177.5,-207 171.5,-207"/>
<text text-anchor="middle" x="117" y="-185.6" font-family="DejaVu Sans" font-size="13.00">SCR&#45;7 · Дашборд</text>
</g>
<!-- s14 -->
<g id="node2" class="node">
<title>s14</title>
<path fill="#dbeafe" stroke="#2563eb" d="M641,-134C641,-134 384,-134 384,-134 378,-134 372,-128 372,-122 372,-122 372,-110 372,-110 372,-104 378,-98 384,-98 384,-98 641,-98 641,-98 647,-98 653,-104 653,-110 653,-110 653,-122 653,-122 653,-128 647,-134 641,-134"/>
<text text-anchor="middle" x="512.5" y="-112.6" font-family="DejaVu Sans" font-size="13.00">SCR&#45;14 · Настройки и смена традиции</text>
</g>
<!-- s7&#45;&gt;s14 -->
<g id="edge1" class="edge">
<title>s7&#45;&gt;s14</title>
<path fill="none" stroke="#64748b" d="M183.86,-176.78C243.92,-165.64 333.76,-148.97 404.18,-135.91"/>
<polygon fill="#64748b" stroke="#64748b" points="405.23,-139.28 414.42,-134.01 403.95,-132.39 405.23,-139.28"/>
<text text-anchor="middle" x="299.5" y="-166" font-family="DejaVu Sans" font-size="10.00">меню: настройки</text>
</g>
<!-- s5 -->
<g id="node3" class="node">
<title>s5</title>
<path fill="#dbeafe" stroke="#2563eb" d="M1080,-238C1080,-238 934,-238 934,-238 928,-238 922,-232 922,-226 922,-226 922,-214 922,-214 922,-208 928,-202 934,-202 934,-202 1080,-202 1080,-202 1086,-202 1092,-208 1092,-214 1092,-214 1092,-226 1092,-226 1092,-232 1086,-238 1080,-238"/>
<text text-anchor="middle" x="1007" y="-216.6" font-family="DejaVu Sans" font-size="13.00">SCR&#45;5 · О приложении</text>
</g>
<!-- s14&#45;&gt;s5 -->
<g id="edge6" class="edge">
<title>s14&#45;&gt;s5</title>
<path fill="none" stroke="#64748b" d="M538.19,-134.04C569.41,-155.71 625.68,-191.01 680,-206 755.81,-226.92 845.26,-229.27 911.27,-227.03"/>
<polygon fill="#64748b" stroke="#64748b" points="911.8,-230.52 921.66,-226.64 911.53,-223.52 911.8,-230.52"/>
<text text-anchor="middle" x="753.5" y="-229" font-family="DejaVu Sans" font-size="10.00">«О приложении»</text>
</g>
<!-- n5 -->
<g id="node4" class="node">
<title>n5</title>
<path fill="#f1f3f5" stroke="#6b7280" stroke-dasharray="5,2" d="M1129,-124C1129,-124 885,-124 885,-124 879,-124 873,-118 873,-112 873,-112 873,-100 873,-100 873,-94 879,-88 885,-88 885,-88 1129,-88 1129,-88 1135,-88 1141,-94 1141,-100 1141,-100 1141,-112 1141,-112 1141,-118 1135,-124 1129,-124"/>
<text text-anchor="middle" x="1007" y="-102.6" font-family="DejaVu Sans" font-size="13.00">N&#45;5 · Окно «данные не потеряются»</text>
</g>
<!-- s14&#45;&gt;n5 -->
<g id="edge2" class="edge">
<title>s14&#45;&gt;n5</title>
<path fill="none" stroke="#64748b" d="M653.31,-113.16C718.77,-111.83 796.66,-110.25 862.57,-108.91"/>
<polygon fill="#64748b" stroke="#64748b" points="862.69,-112.41 872.62,-108.71 862.55,-105.41 862.69,-112.41"/>
<text text-anchor="middle" x="753.5" y="-115" font-family="DejaVu Sans" font-size="10.00">«Применить»</text>
</g>
<!-- n6 -->
<g id="node5" class="node">
<title>n6</title>
<path fill="#f1f3f5" stroke="#6b7280" stroke-dasharray="5,2" d="M1148,-36C1148,-36 866,-36 866,-36 860,-36 854,-30 854,-24 854,-24 854,-12 854,-12 854,-6 860,0 866,0 866,0 1148,0 1148,0 1154,0 1160,-6 1160,-12 1160,-12 1160,-24 1160,-24 1160,-30 1154,-36 1148,-36"/>
<text text-anchor="middle" x="1007" y="-14.6" font-family="DejaVu Sans" font-size="13.00">N&#45;6 · Запрос разрешения на уведомления</text>
</g>
<!-- s14&#45;&gt;n6 -->
<g id="edge4" class="edge">
<title>s14&#45;&gt;n6</title>
<path fill="none" stroke="#64748b" d="M566.59,-97.9C599.04,-87.38 641.55,-74.56 680,-66 732.85,-54.24 791.19,-44.61 843.73,-37.15"/>
<polygon fill="#64748b" stroke="#64748b" points="844.39,-40.59 853.81,-35.74 843.42,-33.66 844.39,-40.59"/>
<text text-anchor="middle" x="753.5" y="-69" font-family="DejaVu Sans" font-size="10.00">включить уведомления</text>
</g>
<!-- s5&#45;&gt;s14 -->
<g id="edge7" class="edge">
<title>s5&#45;&gt;s14</title>
<path fill="none" stroke="#64748b" d="M921.92,-202.24C835.09,-183.91 699.84,-155.35 609.03,-136.17"/>
<polygon fill="#64748b" stroke="#64748b" points="609.51,-132.7 599.01,-134.06 608.07,-139.55 609.51,-132.7"/>
<text text-anchor="middle" x="753.5" y="-183" font-family="DejaVu Sans" font-size="10.00">назад</text>
</g>
<!-- n5&#45;&gt;s14 -->
<g id="edge3" class="edge">
<title>n5&#45;&gt;s14</title>
<path fill="none" stroke="#64748b" d="M872.65,-91.08C813.58,-86.52 743.27,-83.9 680,-89 659.81,-90.63 638.37,-93.35 617.83,-96.45"/>
<polygon fill="#64748b" stroke="#64748b" points="617.18,-93.01 607.83,-98 618.25,-99.93 617.18,-93.01"/>
<text text-anchor="middle" x="753.5" y="-92" font-family="DejaVu Sans" font-size="10.00">подтвердить или отменить</text>
</g>
<!-- n6&#45;&gt;s14 -->
<g id="edge5" class="edge">
<title>n6&#45;&gt;s14</title>
<path fill="none" stroke="#64748b" stroke-dasharray="5,2" d="M853.71,-3.59C798.19,-2.44 735.46,-6.02 680,-21 628.53,-34.9 576.29,-68.6 544.38,-91.88"/>
<polygon fill="#64748b" stroke="#64748b" points="542.28,-89.08 536.33,-97.85 546.45,-94.71 542.28,-89.08"/>
<text text-anchor="middle" x="753.5" y="-24" font-family="DejaVu Sans" font-size="10.00">разрешить или запретить</text>
</g>
<!-- s2 -->
<g id="node6" class="node">
<title>s2</title>
<path fill="#fff4e6" stroke="#d97706" stroke-dasharray="5,2" d="M167.5,-134C167.5,-134 66.5,-134 66.5,-134 60.5,-134 54.5,-128 54.5,-122 54.5,-122 54.5,-110 54.5,-110 54.5,-104 60.5,-98 66.5,-98 66.5,-98 167.5,-98 167.5,-98 173.5,-98 179.5,-104 179.5,-110 179.5,-110 179.5,-122 179.5,-122 179.5,-128 173.5,-134 167.5,-134"/>
<text text-anchor="middle" x="117" y="-112.6" font-family="DejaVu Sans" font-size="13.00">SCR&#45;2 · Главная</text>
</g>
<!-- s2&#45;&gt;s14 -->
<g id="edge9" class="edge">
<title>s2&#45;&gt;s14</title>
<path fill="none" stroke="#64748b" stroke-dasharray="5,2" d="M179.92,-116C228.61,-116 298.53,-116 361.62,-116"/>
<polygon fill="#64748b" stroke="#64748b" points="361.68,-119.5 371.68,-116 361.68,-112.5 361.68,-119.5"/>
</g>
<!-- s6 -->
<g id="node7" class="node">
<title>s6</title>
<path fill="#fff4e6" stroke="#d97706" stroke-dasharray="5,2" d="M176,-62C176,-62 58,-62 58,-62 52,-62 46,-56 46,-50 46,-50 46,-38 46,-38 46,-32 52,-26 58,-26 58,-26 176,-26 176,-26 182,-26 188,-32 188,-38 188,-38 188,-50 188,-50 188,-56 182,-62 176,-62"/>
<text text-anchor="middle" x="117" y="-40.6" font-family="DejaVu Sans" font-size="13.00">SCR&#45;6 · Настройки</text>
</g>
<!-- s6&#45;&gt;s14 -->
<g id="edge8" class="edge">
<title>s6&#45;&gt;s14</title>
<path fill="none" stroke="#64748b" stroke-dasharray="5,2" d="M188.35,-56.87C247.98,-67.78 334.47,-83.61 402.97,-96.14"/>
<polygon fill="#64748b" stroke="#64748b" points="402.47,-99.61 412.94,-97.97 403.73,-92.72 402.47,-99.61"/>
</g>
<!-- legend -->
<g id="node8" class="node">
<title>legend</title>
<path fill="#dbeafe" stroke="transparent" d="M1103.5,-361.5C1103.5,-361.5 910.5,-361.5 910.5,-361.5 904.5,-361.5 898.5,-355.5 898.5,-349.5 898.5,-349.5 898.5,-286.5 898.5,-286.5 898.5,-280.5 904.5,-274.5 910.5,-274.5 910.5,-274.5 1103.5,-274.5 1103.5,-274.5 1109.5,-274.5 1115.5,-280.5 1115.5,-286.5 1115.5,-286.5 1115.5,-349.5 1115.5,-349.5 1115.5,-355.5 1109.5,-361.5 1103.5,-361.5"/>
<text text-anchor="start" x="912" y="-344.2" font-family="DejaVu Sans" font-size="11.00" fill="#2563eb">▢</text>
<text text-anchor="start" x="923" y="-344.2" font-family="DejaVu Sans" font-size="11.00" fill="#334155"> экран из требований</text>
<text text-anchor="start" x="912" y="-325.2" font-family="DejaVu Sans" font-size="11.00" fill="#6b7280">▢</text>
<text text-anchor="start" x="923" y="-325.2" font-family="DejaVu Sans" font-size="11.00" fill="#334155"> окно (пунктир)</text>
<text text-anchor="start" x="912" y="-306.2" font-family="DejaVu Sans" font-size="11.00" fill="#d97706">▢</text>
<text text-anchor="start" x="923" y="-306.2" font-family="DejaVu Sans" font-size="11.00" fill="#334155"> под вопросом (пунктир)</text>
<text text-anchor="start" x="912" y="-286.2" font-family="DejaVu Sans" font-size="11.00" fill="#334155">жирная рамка — главный экран</text>
</g>
</g>
</svg>
